<svg width="205" height="24" viewBox="0 0 205 24" fill="none" xmlns="http://www.w3.org/2000/svg">
<path d="M64.2651 17.9812H52.2776L50.2589 22.05H43.78L55.0319 0.54779H61.5108L72.7627 22.05H66.2838L64.2651 17.9812ZM54.359 13.7872H62.215L58.3027 5.86858L54.359 13.7872Z" fill="#1C1D21"/>
<path d="M76.2838 22.05V0.54779H82.0897V22.05H76.2838Z" fill="#1C1D21"/>
<path d="M94.6405 12.8482C94.6405 13.7454 94.724 14.481 94.8909 15.0548C95.0578 15.6181 95.3291 16.0668 95.7047 16.4006C96.0803 16.7345 96.5654 16.964 97.1601 17.0892C97.7652 17.2144 98.5059 17.277 99.3823 17.277H110.399V22.05H98.1929C96.5028 22.05 95.0631 21.9144 93.8737 21.6432C92.6948 21.3615 91.7297 20.9337 90.9786 20.3599C90.2274 19.7757 89.6797 19.0401 89.3354 18.1533C89.0015 17.2666 88.8346 16.2128 88.8346 14.9922V0.54779H94.6405V12.8482Z" fill="#1C1D21"/>
<path d="M133.295 22.05V19.9374C132.554 20.3443 131.756 20.7042 130.9 21.0172C130.055 21.3302 129.174 21.5962 128.255 21.8153C127.337 22.0344 126.388 22.1961 125.407 22.3004C124.437 22.4152 123.456 22.4726 122.465 22.4726C121.307 22.4726 120.186 22.363 119.101 22.1439C118.026 21.9249 117.071 21.5701 116.237 21.0798C115.402 20.5894 114.729 19.9478 114.218 19.1549C113.717 18.362 113.467 17.3917 113.467 16.2441C113.467 14.7939 113.863 13.5889 114.656 12.6291C115.449 11.6589 116.659 10.866 118.287 10.2504C119.914 9.63487 121.97 9.16017 124.453 8.82631C126.946 8.49246 129.893 8.23164 133.295 8.04385V7.59001C133.295 7.23529 133.201 6.88579 133.013 6.5415C132.825 6.18679 132.481 5.87901 131.98 5.61819C131.49 5.34693 130.811 5.12784 129.946 4.96092C129.09 4.79399 127.995 4.71053 126.659 4.71053C125.605 4.71053 124.562 4.76791 123.529 4.88267C122.507 4.987 121.516 5.13306 120.556 5.32085C119.607 5.50865 118.704 5.72774 117.849 5.97813C116.993 6.22852 116.216 6.48934 115.517 6.7606V1.5963C116.247 1.40851 117.066 1.22593 117.974 1.04857C118.881 0.87121 119.826 0.719933 120.806 0.594738C121.787 0.45911 122.778 0.35478 123.78 0.28175C124.781 0.198287 125.741 0.156555 126.659 0.156555C128.464 0.156555 130.128 0.307832 131.651 0.610387C133.175 0.902509 134.484 1.36156 135.579 1.98753C136.685 2.61351 137.546 3.40641 138.161 4.36624C138.787 5.32607 139.1 6.46847 139.1 7.79346V22.05H133.295ZM133.295 12.2379C131.062 12.3213 129.163 12.4413 127.598 12.5978C126.044 12.7543 124.75 12.9369 123.717 13.1455C122.684 13.3542 121.87 13.5785 121.276 13.8185C120.692 14.0584 120.253 14.3036 119.961 14.554C119.669 14.8044 119.487 15.0548 119.414 15.3052C119.351 15.5556 119.32 15.7851 119.32 15.9937C119.32 16.2441 119.387 16.4893 119.523 16.7293C119.659 16.9588 119.893 17.1622 120.227 17.3396C120.572 17.5169 121.025 17.6578 121.589 17.7621C122.152 17.8664 122.862 17.9186 123.717 17.9186C124.666 17.9186 125.595 17.8456 126.503 17.6995C127.41 17.5535 128.271 17.3552 129.085 17.1048C129.899 16.844 130.66 16.5415 131.37 16.1972C132.09 15.8425 132.731 15.4669 133.295 15.0704V12.2379Z" fill="#1C1D21"/>
<path d="M166.221 22.05V10C166.221 9.19668 166.153 8.4716 166.017 7.82475C165.882 7.16748 165.626 6.60932 165.251 6.15027C164.885 5.68079 164.369 5.32085 163.701 5.07046C163.044 4.80964 162.194 4.67923 161.15 4.67923C160.358 4.67923 159.523 4.78877 158.647 5.00786C157.781 5.21652 156.92 5.49821 156.064 5.85293C155.209 6.20765 154.39 6.61975 153.607 7.08923C152.835 7.55871 152.147 8.04906 151.542 8.56028V22.05H145.736V0.54779H151.542V3.48987C152.272 3.07256 153.049 2.66046 153.873 2.25357C154.698 1.83626 155.574 1.46067 156.503 1.12682C157.431 0.792963 158.417 0.521707 159.46 0.313049C160.504 0.10439 161.604 6.10352e-05 162.762 6.10352e-05C164.212 6.10352e-05 165.506 0.177421 166.643 0.53214C167.791 0.876427 168.761 1.37199 169.554 2.01883C170.347 2.65524 170.952 3.43249 171.369 4.35059C171.797 5.25826 172.011 6.27547 172.011 7.40222V22.05H166.221Z" fill="#1C1D21"/>
<path d="M205 11.2833C205 12.6604 204.849 13.8863 204.546 14.9609C204.244 16.025 203.816 16.9536 203.263 17.7465C202.72 18.5394 202.063 19.2123 201.291 19.7652C200.529 20.3182 199.679 20.7616 198.74 21.0954C197.801 21.4293 196.789 21.6745 195.704 21.831C194.619 21.977 193.487 22.05 192.308 22.05H178.662V0.54779H192.277C193.456 0.54779 194.588 0.626036 195.673 0.78253C196.758 0.928591 197.77 1.16855 198.709 1.5024C199.658 1.83626 200.519 2.27965 201.291 2.8326C202.063 3.37511 202.72 4.04804 203.263 4.85137C203.816 5.64427 204.244 6.5728 204.546 7.63696C204.849 8.70112 205 9.91656 205 11.2833ZM199.147 11.2833C199.147 10.2504 199.011 9.35318 198.74 8.59157C198.479 7.82997 198.052 7.204 197.457 6.71365C196.873 6.21287 196.106 5.8425 195.157 5.60254C194.207 5.35215 193.049 5.22696 191.682 5.22696H184.468V17.3709H191.682C193.049 17.3709 194.207 17.2509 195.157 17.0109C196.106 16.7606 196.873 16.385 197.457 15.8842C198.052 15.373 198.479 14.7366 198.74 13.975C199.011 13.2134 199.147 12.3161 199.147 11.2833Z" fill="#1C1D21"/>
<path d="M11.8344 23.5263C18.3704 23.5263 23.6688 18.2598 23.6688 11.7632C23.6688 5.26659 18.3704 6.10352e-05 11.8344 6.10352e-05C5.29845 6.10352e-05 0 5.26659 0 11.7632C0 18.2598 5.29845 23.5263 11.8344 23.5263Z" fill="#1C1D21"/>
<path d="M25.7834 0.0530396C29.6488 2.52493 32.2237 6.84478 32.2237 11.7632C32.2237 16.6816 29.6488 21.0014 25.7834 23.4733C31.7811 22.9418 36.5012 17.8966 36.5012 11.7632C36.5012 5.62983 31.7811 0.58459 25.7834 0.0530396Z" fill="#CFD3D7"/>
<path d="M30.085 11.7632C30.085 5.62983 25.3648 0.58459 19.3672 0.0530396C23.2325 2.52493 25.8075 6.84478 25.8075 11.7632C25.8075 16.6816 23.2325 21.0014 19.3672 23.4733C25.3648 22.9418 30.085 17.8966 30.085 11.7632Z" fill="#CFD3D7"/>
</svg>
