<svg width="205" height="24" viewBox="0 0 205 24" fill="none" xmlns="http://www.w3.org/2000/svg">
<path d="M64.2651 17.9811H52.2776L50.2589 22.05H43.78L55.0319 0.547729H61.5108L72.7627 22.05H66.2838L64.2651 17.9811ZM54.359 13.7871H62.215L58.3027 5.86852L54.359 13.7871Z" fill="#1C1D21"/>
<path d="M76.2838 22.05V0.547729H82.0897V22.05H76.2838Z" fill="#1C1D21"/>
<path d="M94.6405 12.8481C94.6405 13.7454 94.724 14.4809 94.8909 15.0547C95.0578 15.6181 95.3291 16.0667 95.7047 16.4006C96.0803 16.7344 96.5654 16.9639 97.1601 17.0891C97.7652 17.2143 98.5059 17.2769 99.3823 17.2769H110.399V22.05H98.1929C96.5028 22.05 95.0631 21.9144 93.8737 21.6431C92.6948 21.3614 91.7297 20.9337 90.9786 20.3599C90.2274 19.7756 89.6797 19.0401 89.3354 18.1533C89.0015 17.2665 88.8346 16.2128 88.8346 14.9921V0.547729H94.6405V12.8481Z" fill="#1C1D21"/>
<path d="M133.295 22.05V19.9373C132.554 20.3442 131.756 20.7041 130.9 21.0171C130.055 21.3301 129.174 21.5962 128.255 21.8152C127.337 22.0343 126.388 22.196 125.407 22.3004C124.437 22.4151 123.456 22.4725 122.465 22.4725C121.307 22.4725 120.186 22.363 119.101 22.1439C118.026 21.9248 117.071 21.5701 116.237 21.0797C115.402 20.5894 114.729 19.9478 114.218 19.1548C113.717 18.3619 113.467 17.3917 113.467 16.2441C113.467 14.7939 113.863 13.5889 114.656 12.6291C115.449 11.6588 116.659 10.8659 118.287 10.2503C119.914 9.63481 121.97 9.16011 124.453 8.82625C126.946 8.4924 129.893 8.23158 133.295 8.04378V7.58995C133.295 7.23523 133.201 6.88573 133.013 6.54144C132.825 6.18672 132.481 5.87895 131.98 5.61813C131.49 5.34687 130.811 5.12778 129.946 4.96086C129.09 4.79393 127.995 4.71047 126.659 4.71047C125.605 4.71047 124.562 4.76785 123.529 4.88261C122.507 4.98694 121.516 5.133 120.556 5.32079C119.607 5.50858 118.704 5.72768 117.849 5.97807C116.993 6.22846 116.216 6.48928 115.517 6.76053V1.59624C116.247 1.40844 117.066 1.22587 117.974 1.04851C118.881 0.871149 119.826 0.719872 120.806 0.594677C121.787 0.459049 122.778 0.354719 123.78 0.281689C124.781 0.198226 125.741 0.156494 126.659 0.156494C128.464 0.156494 130.128 0.307771 131.651 0.610326C133.175 0.902448 134.484 1.3615 135.579 1.98747C136.685 2.61345 137.546 3.40635 138.161 4.36618C138.787 5.32601 139.1 6.46841 139.1 7.79339V22.05H133.295ZM133.295 12.2378C131.062 12.3213 129.163 12.4413 127.598 12.5978C126.044 12.7542 124.75 12.9368 123.717 13.1455C122.684 13.3541 121.87 13.5785 121.276 13.8184C120.692 14.0584 120.253 14.3035 119.961 14.5539C119.669 14.8043 119.487 15.0547 119.414 15.3051C119.351 15.5555 119.32 15.785 119.32 15.9937C119.32 16.2441 119.387 16.4892 119.523 16.7292C119.659 16.9587 119.893 17.1622 120.227 17.3395C120.572 17.5169 121.025 17.6577 121.589 17.7621C122.152 17.8664 122.862 17.9185 123.717 17.9185C124.666 17.9185 125.595 17.8455 126.503 17.6995C127.41 17.5534 128.271 17.3552 129.085 17.1048C129.899 16.844 130.66 16.5414 131.37 16.1971C132.09 15.8424 132.731 15.4668 133.295 15.0704V12.2378Z" fill="#1C1D21"/>
<path d="M166.221 22.05V9.99996C166.221 9.19662 166.153 8.47153 166.017 7.82469C165.882 7.16742 165.626 6.60926 165.251 6.15021C164.885 5.68073 164.369 5.32079 163.701 5.0704C163.044 4.80958 162.194 4.67917 161.15 4.67917C160.358 4.67917 159.523 4.78871 158.647 5.0078C157.781 5.21646 156.92 5.49815 156.064 5.85287C155.209 6.20759 154.39 6.61969 153.607 7.08917C152.835 7.55865 152.147 8.049 151.542 8.56021V22.05H145.736V0.547729H151.542V3.48981C152.272 3.0725 153.049 2.6604 153.873 2.25351C154.698 1.83619 155.574 1.46061 156.503 1.12676C157.431 0.792902 158.417 0.521646 159.46 0.312988C160.504 0.104329 161.604 0 162.762 0C164.212 0 165.506 0.17736 166.643 0.532079C167.791 0.876366 168.761 1.37193 169.554 2.01877C170.347 2.65518 170.952 3.43243 171.369 4.35053C171.797 5.25819 172.011 6.2754 172.011 7.40216V22.05H166.221Z" fill="#1C1D21"/>
<path d="M205 11.2832C205 12.6604 204.849 13.8862 204.546 14.9608C204.244 16.025 203.816 16.9535 203.263 17.7464C202.72 18.5393 202.063 19.2122 201.291 19.7652C200.529 20.3181 199.679 20.7615 198.74 21.0954C197.801 21.4292 196.789 21.6744 195.704 21.8309C194.619 21.977 193.487 22.05 192.308 22.05H178.662V0.547729H192.277C193.456 0.547729 194.588 0.625975 195.673 0.782469C196.758 0.92853 197.77 1.16849 198.709 1.50234C199.658 1.83619 200.519 2.27959 201.291 2.83254C202.063 3.37505 202.72 4.04797 203.263 4.85131C203.816 5.64421 204.244 6.57274 204.546 7.6369C204.849 8.70106 205 9.91649 205 11.2832ZM199.147 11.2832C199.147 10.2503 199.011 9.35312 198.74 8.59151C198.479 7.82991 198.052 7.20393 197.457 6.71359C196.873 6.21281 196.106 5.84244 195.157 5.60248C194.207 5.35209 193.049 5.22689 191.682 5.22689H184.468V17.3708H191.682C193.049 17.3708 194.207 17.2508 195.157 17.0109C196.106 16.7605 196.873 16.3849 197.457 15.8841C198.052 15.3729 198.479 14.7365 198.74 13.9749C199.011 13.2133 199.147 12.3161 199.147 11.2832Z" fill="#1C1D21"/>
<path d="M11.8344 23.5262C18.3704 23.5262 23.6688 18.2597 23.6688 11.7631C23.6688 5.26653 18.3704 0 11.8344 0C5.29845 0 0 5.26653 0 11.7631C0 18.2597 5.29845 23.5262 11.8344 23.5262Z" fill="#1C1D21"/>
<path d="M25.7836 0.0529785C29.6489 2.52487 32.2238 6.84472 32.2238 11.7631C32.2238 16.6815 29.6489 21.0014 25.7836 23.4733C31.7812 22.9417 36.5013 17.8965 36.5013 11.7631C36.5013 5.62977 31.7812 0.584529 25.7836 0.0529785Z" fill="#D6AF76"/>
<path d="M30.0851 11.7631C30.0851 5.62977 25.3649 0.584529 19.3673 0.0529785C23.2327 2.52487 25.8076 6.84472 25.8076 11.7631C25.8076 16.6815 23.2327 21.0014 19.3673 23.4733C25.3649 22.9417 30.0851 17.8965 30.0851 11.7631Z" fill="#D6AF76"/>
</svg>
