<svg width="213" height="32" viewBox="0 0 213 32" fill="none" xmlns="http://www.w3.org/2000/svg">
<g filter="url(#filter0_d_1326_314)">
<path d="M68.2651 17.9812H56.2776L54.2589 22.05H47.78L59.0319 0.54779H65.5108L76.7627 22.05H70.2838L68.2651 17.9812ZM58.359 13.7872H66.215L62.3027 5.86858L58.359 13.7872Z" fill="white"/>
<path d="M80.2838 22.05V0.54779H86.0897V22.05H80.2838Z" fill="white"/>
<path d="M98.6405 12.8482C98.6405 13.7454 98.724 14.481 98.8909 15.0548C99.0578 15.6181 99.3291 16.0668 99.7047 16.4006C100.08 16.7345 100.565 16.964 101.16 17.0892C101.765 17.2144 102.506 17.277 103.382 17.277H114.399V22.05H102.193C100.503 22.05 99.0631 21.9144 97.8737 21.6432C96.6948 21.3615 95.7297 20.9337 94.9786 20.3599C94.2274 19.7757 93.6797 19.0401 93.3354 18.1533C93.0015 17.2666 92.8346 16.2128 92.8346 14.9922V0.54779H98.6405V12.8482Z" fill="white"/>
<path d="M137.295 22.05V19.9374C136.554 20.3443 135.756 20.7042 134.9 21.0172C134.055 21.3302 133.174 21.5962 132.255 21.8153C131.337 22.0344 130.388 22.1961 129.407 22.3004C128.437 22.4152 127.456 22.4726 126.465 22.4726C125.307 22.4726 124.186 22.363 123.101 22.1439C122.026 21.9249 121.071 21.5701 120.237 21.0798C119.402 20.5894 118.729 19.9478 118.218 19.1549C117.717 18.362 117.467 17.3917 117.467 16.2441C117.467 14.7939 117.863 13.5889 118.656 12.6291C119.449 11.6589 120.659 10.866 122.287 10.2504C123.914 9.63487 125.97 9.16017 128.453 8.82631C130.946 8.49246 133.893 8.23164 137.295 8.04385V7.59001C137.295 7.23529 137.201 6.88579 137.013 6.5415C136.825 6.18679 136.481 5.87901 135.98 5.61819C135.49 5.34693 134.811 5.12784 133.946 4.96092C133.09 4.79399 131.995 4.71053 130.659 4.71053C129.605 4.71053 128.562 4.76791 127.529 4.88267C126.507 4.987 125.516 5.13306 124.556 5.32085C123.607 5.50865 122.704 5.72774 121.849 5.97813C120.993 6.22852 120.216 6.48934 119.517 6.7606V1.5963C120.247 1.40851 121.066 1.22593 121.974 1.04857C122.881 0.87121 123.826 0.719933 124.806 0.594738C125.787 0.45911 126.778 0.35478 127.78 0.28175C128.781 0.198287 129.741 0.156555 130.659 0.156555C132.464 0.156555 134.128 0.307832 135.651 0.610387C137.175 0.902509 138.484 1.36156 139.579 1.98753C140.685 2.61351 141.546 3.40641 142.161 4.36624C142.787 5.32607 143.1 6.46847 143.1 7.79346V22.05H137.295ZM137.295 12.2379C135.062 12.3213 133.163 12.4413 131.598 12.5978C130.044 12.7543 128.75 12.9369 127.717 13.1455C126.684 13.3542 125.87 13.5785 125.276 13.8185C124.692 14.0584 124.253 14.3036 123.961 14.554C123.669 14.8044 123.487 15.0548 123.414 15.3052C123.351 15.5556 123.32 15.7851 123.32 15.9937C123.32 16.2441 123.387 16.4893 123.523 16.7293C123.659 16.9588 123.893 17.1622 124.227 17.3396C124.572 17.5169 125.025 17.6578 125.589 17.7621C126.152 17.8664 126.862 17.9186 127.717 17.9186C128.666 17.9186 129.595 17.8456 130.503 17.6995C131.41 17.5535 132.271 17.3552 133.085 17.1048C133.899 16.844 134.66 16.5415 135.37 16.1972C136.09 15.8425 136.731 15.4669 137.295 15.0704V12.2379Z" fill="white"/>
<path d="M170.221 22.05V10C170.221 9.19668 170.153 8.4716 170.017 7.82475C169.882 7.16748 169.626 6.60932 169.251 6.15027C168.885 5.68079 168.369 5.32085 167.701 5.07046C167.044 4.80964 166.194 4.67923 165.15 4.67923C164.358 4.67923 163.523 4.78877 162.647 5.00786C161.781 5.21652 160.92 5.49821 160.064 5.85293C159.209 6.20765 158.39 6.61975 157.607 7.08923C156.835 7.55871 156.147 8.04906 155.542 8.56028V22.05H149.736V0.54779H155.542V3.48987C156.272 3.07256 157.049 2.66046 157.873 2.25357C158.698 1.83626 159.574 1.46067 160.503 1.12682C161.431 0.792963 162.417 0.521707 163.46 0.313049C164.504 0.10439 165.604 6.10352e-05 166.762 6.10352e-05C168.212 6.10352e-05 169.506 0.177421 170.643 0.53214C171.791 0.876427 172.761 1.37199 173.554 2.01883C174.347 2.65524 174.952 3.43249 175.369 4.35059C175.797 5.25826 176.011 6.27547 176.011 7.40222V22.05H170.221Z" fill="white"/>
<path d="M209 11.2833C209 12.6604 208.849 13.8863 208.546 14.9609C208.244 16.025 207.816 16.9536 207.263 17.7465C206.72 18.5394 206.063 19.2123 205.291 19.7652C204.529 20.3182 203.679 20.7616 202.74 21.0954C201.801 21.4293 200.789 21.6745 199.704 21.831C198.619 21.977 197.487 22.05 196.308 22.05H182.662V0.54779H196.277C197.456 0.54779 198.588 0.626036 199.673 0.78253C200.758 0.928591 201.77 1.16855 202.709 1.5024C203.658 1.83626 204.519 2.27965 205.291 2.8326C206.063 3.37511 206.72 4.04804 207.263 4.85137C207.816 5.64427 208.244 6.5728 208.546 7.63696C208.849 8.70112 209 9.91656 209 11.2833ZM203.147 11.2833C203.147 10.2504 203.011 9.35318 202.74 8.59157C202.479 7.82997 202.052 7.204 201.457 6.71365C200.873 6.21287 200.106 5.8425 199.157 5.60254C198.207 5.35215 197.049 5.22696 195.682 5.22696H188.468V17.3709H195.682C197.049 17.3709 198.207 17.2509 199.157 17.0109C200.106 16.7606 200.873 16.385 201.457 15.8842C202.052 15.373 202.479 14.7366 202.74 13.975C203.011 13.2134 203.147 12.3161 203.147 11.2833Z" fill="white"/>
<path d="M15.8344 23.5263C22.3704 23.5263 27.6688 18.2598 27.6688 11.7632C27.6688 5.26659 22.3704 6.10352e-05 15.8344 6.10352e-05C9.29845 6.10352e-05 4 5.26659 4 11.7632C4 18.2598 9.29845 23.5263 15.8344 23.5263Z" fill="#FF824D"/>
<path d="M29.7836 0.0530396C33.6489 2.52493 36.2238 6.84478 36.2238 11.7632C36.2238 16.6816 33.6489 21.0014 29.7836 23.4733C35.7812 22.9418 40.5013 17.8966 40.5013 11.7632C40.5013 5.62983 35.7812 0.58459 29.7836 0.0530396Z" fill="#CFD3D7"/>
<path d="M34.0851 11.7632C34.0851 5.62983 29.3649 0.58459 23.3673 0.0530396C27.2327 2.52493 29.8076 6.84478 29.8076 11.7632C29.8076 16.6816 27.2327 21.0014 23.3673 23.4733C29.3649 22.9418 34.0851 17.8966 34.0851 11.7632Z" fill="#CFD3D7"/>
</g>
<defs>
<filter id="filter0_d_1326_314" x="0" y="6.10352e-05" width="213" height="31.5262" filterUnits="userSpaceOnUse" color-interpolation-filters="sRGB">
<feFlood flood-opacity="0" result="BackgroundImageFix"/>
<feColorMatrix in="SourceAlpha" type="matrix" values="0 0 0 0 0 0 0 0 0 0 0 0 0 0 0 0 0 0 127 0" result="hardAlpha"/>
<feOffset dy="4"/>
<feGaussianBlur stdDeviation="2"/>
<feComposite in2="hardAlpha" operator="out"/>
<feColorMatrix type="matrix" values="0 0 0 0 0 0 0 0 0 0 0 0 0 0 0 0 0 0 0.25 0"/>
<feBlend mode="normal" in2="BackgroundImageFix" result="effect1_dropShadow_1326_314"/>
<feBlend mode="normal" in="SourceGraphic" in2="effect1_dropShadow_1326_314" result="shape"/>
</filter>
</defs>
</svg>
